<svg xmlns="http://www.w3.org/2000/svg" fill="none" viewBox="0 0 24 24" height="24" width="24">
<path stroke-width="0.833333" stroke="#71CBE1" d="M10.1348 11.9294C11.2972 11.3283 12.7291 11.3284 13.8916 11.9294L20.9678 15.5896C21.3927 15.8094 21.5839 16.1792 21.584 16.531C21.584 16.8828 21.3928 17.2526 20.9678 17.4724L13.8916 21.1326C12.7291 21.7337 11.2972 21.7338 10.1348 21.1326L3.05859 17.4724C2.63363 17.2526 2.44336 16.8828 2.44336 16.531C2.44341 16.1792 2.63366 15.8094 3.05859 15.5896L10.1348 11.9294Z"></path>
<path fill="#71CBE1" d="M2.86719 13.7644C1.74609 13.1846 1.74609 11.7215 2.86719 11.1416L9.9434 7.48169C11.226 6.81828 12.8007 6.81828 14.0833 7.48169L21.1595 11.1416C22.2806 11.7215 22.2806 13.1846 21.1595 13.7644L14.0833 17.4244C12.8007 18.0878 11.226 18.0878 9.9434 17.4244L2.86719 13.7644Z"></path>
<path stroke-width="0.833333" stroke="#71CBE1" d="M10.1348 2.86719C11.2972 2.26603 12.7291 2.26613 13.8916 2.86719L20.9678 6.52734C21.3927 6.74713 21.5839 7.11695 21.584 7.46875C21.584 7.82059 21.3928 8.19034 20.9678 8.41016L13.8916 12.0703C12.7291 12.6715 11.2972 12.6716 10.1348 12.0703L3.05859 8.41016C2.63363 8.19034 2.44336 7.82058 2.44336 7.46875C2.44341 7.11695 2.63366 6.74713 3.05859 6.52734L10.1348 2.86719Z"></path>
<mask height="12" width="20" y="6" x="2" maskUnits="userSpaceOnUse" style="mask-type:alpha" id="mask0_377_1151">
<path fill="#FFFAF6" d="M2.84083 13.7644C1.71972 13.1846 1.71972 11.7215 2.84083 11.1416L9.91703 7.48169C11.1997 6.81828 12.7743 6.81828 14.057 7.48169L21.1332 11.1416C22.2543 11.7215 22.2543 13.1846 21.1332 13.7644L14.057 17.4244C12.7743 18.0878 11.1997 18.0878 9.91703 17.4244L2.84083 13.7644Z"></path>
</mask>
<g mask="url(#mask0_377_1151)">
<path stroke-width="0.833333" stroke="#DFF2F3" d="M10.1084 2.86719C11.2708 2.26603 12.7028 2.26613 13.8652 2.86719L20.9414 6.52734C21.3663 6.74713 21.5576 7.11695 21.5576 7.46875C21.5576 7.82059 21.3664 8.19034 20.9414 8.41016L13.8652 12.0703C12.7027 12.6715 11.2709 12.6716 10.1084 12.0703L3.03223 8.41016C2.60726 8.19034 2.41699 7.82058 2.41699 7.46875C2.41704 7.11695 2.60729 6.74713 3.03223 6.52734L10.1084 2.86719Z"></path>
</g>
</svg>
